<svg xmlns="http://www.w3.org/2000/svg" version="1.1" xmlns:xlink="http://www.w3.org/1999/xlink" xmlns:svgjs="http://svgjs.dev/svgjs" width="2000" height="2250" viewBox="0 0 2000 2250"><g transform="matrix(1,0,0,1,0,0)"><svg viewBox="0 0 320 360" data-background-color="#000000" preserveAspectRatio="xMidYMid meet" height="2250" width="2000" xmlns="http://www.w3.org/2000/svg" xmlns:xlink="http://www.w3.org/1999/xlink"><g id="tight-bounds" transform="matrix(1,0,0,1,0,0)"><svg viewBox="0 0 320 360" height="360" width="320"><g><svg></svg></g><g><svg viewBox="0 0 320 360" height="360" width="320"><g><path d="M160 42.18c72.417 0 131.943 56.114 137.63 127.014h22.37c-1.137-17.82-5.308-34.882-12.133-51.185-7.962-18.957-19.716-36.398-34.502-50.805-14.787-14.787-31.848-26.161-50.806-34.503-20.095-8.341-40.948-12.891-62.559-12.891-21.611 0-42.464 4.171-62.559 12.512-18.957 7.962-36.398 19.716-50.806 34.503-14.787 14.787-26.161 31.848-34.502 50.805-6.825 16.303-10.995 33.744-12.133 51.185h22.37c5.687-70.521 65.213-126.635 137.63-126.635zM160 318.199c-72.417 0-131.943-56.114-137.63-127.014h-22.37c1.137 17.82 5.308 34.882 12.133 51.185 7.962 18.957 19.716 36.398 34.502 50.805 14.787 14.787 31.848 26.161 50.806 34.503 19.716 8.341 40.569 12.512 62.559 12.512 21.991 0 42.464-4.171 62.559-12.512 18.957-7.962 36.398-19.716 50.806-34.503 14.787-14.787 26.161-31.848 34.502-50.805 6.825-16.303 10.995-33.744 12.133-51.185h-22.37c-5.687 70.9-65.213 127.014-137.63 127.014z" fill="#ffffff" fill-rule="nonzero" stroke="none" stroke-width="1" stroke-linecap="butt" stroke-linejoin="miter" stroke-miterlimit="10" stroke-dasharray="" stroke-dashoffset="0" font-family="none" font-weight="none" font-size="none" text-anchor="none" style="mix-blend-mode: normal" data-fill-palette-color="tertiary"></path></g><g transform="matrix(1,0,0,1,102.72727272727272,90)"><svg viewBox="0 0 114.54545454545455 180" height="180" width="114.54545454545455"><g><svg viewBox="0 0 114.54545454545455 180" height="180" width="114.54545454545455"><g><svg viewBox="0 0 114.54545454545455 180" height="180" width="114.54545454545455"><g id="textblocktransform"><svg viewBox="0 0 114.54545454545455 180" height="180" width="114.54545454545455" id="textblock"><g><svg viewBox="0 0 114.54545454545455 180" height="180" width="114.54545454545455"><g transform="matrix(1,0,0,1,0,0)"><svg width="114.54545454545455" viewBox="4.44 -35.99 22.9 35.99" height="180" data-palette-color="#ffffff"><path d="M4.44 0L4.44-35.99 10.3-35.99 10.3 0 4.44 0ZM12.3-35.99L14.79-35.99Q17.09-35.99 19.34-35.25 21.58-34.52 23.36-33.06 25.15-31.59 26.25-29.52 27.34-27.44 27.34-24.85L27.34-24.85Q27.34-22.12 26.42-19.9 25.49-17.68 23.83-16.16 22.17-14.65 19.82-13.82 17.48-12.99 14.65-12.99L14.65-12.99 12.3-12.99 12.3-17.29 15.67-17.29Q16.75-17.29 17.8-17.65 18.85-18.02 19.73-18.85 20.61-19.68 21.14-21.17 21.68-22.66 21.68-24.85L21.68-24.85Q21.68-25.73 21.44-26.88 21.19-28.03 20.43-29.08 19.68-30.13 18.31-30.83 16.94-31.54 14.7-31.54L14.7-31.54 12.3-31.54 12.3-35.99Z" opacity="1" transform="matrix(1,0,0,1,0,0)" fill="#ffffff" class="wordmark-text-0" data-fill-palette-color="primary" id="text-0"></path></svg></g></svg></g></svg></g></svg></g></svg></g></svg></g></svg></g><defs></defs></svg><rect width="320" height="360" fill="none" stroke="none" visibility="hidden"></rect></g></svg></g></svg>